<?xml version="1.0" encoding="utf-8"?>
<!-- Generator: Adobe Illustrator 19.2.1, SVG Export Plug-In . SVG Version: 6.00 Build 0)  -->
<svg version="1.1" id="layer" xmlns="http://www.w3.org/2000/svg" xmlns:xlink="http://www.w3.org/1999/xlink" x="0px" y="0px"
	 viewBox="0 0 652 652" style="enable-background:new 0 0 652 652;" xml:space="preserve">
<style type="text/css">
	.st0{fill:#FF9800;}
</style>
<path d="M109.2,347.5v-28.6H97.3c-7.4,0-11.6,3-16.1,6.4l-56.5,44.8h25.5l37.5-30.4v30.4h17.6l36.3-30.6v30.6h21.5v-51.2h-11.7
	c-6.3,0-10.8,2.6-15.2,6.2L109.2,347.5z M241.2,318.9v51.2h45.9v-12h-24.8v-39.2H241.2z M169.1,350.5c0,13.9,7.1,19.6,25.5,19.6
	h40.3v-11.9h-37.2c-4.4,0-7.4-2-7.4-8.4V346c0-5.7,2.8-8.1,7.3-8.1h37.3v-12H194c-18.1,0-24.9,7.6-24.9,19.7V350.5z M295.6,325.9
	v11.7h39.7c3.9,0,5.3,1.3,5.3,4.2v1.7h-31.9c-13.4,0-17.4,5.5-17.4,12.5v1.7c0,9.7,7.8,12.4,23.1,12.4h23.5
	c16.6,0,23.8-3.7,23.8-16.8V343c0-11.1-6.8-17.1-22.3-17.1H295.6z M367.8,370.1H389v-29c0-1.9,0.8-3.2,3.4-3.2h16.4v-12h-23.6
	c-12.6,0-17.4,4.7-17.4,12.6L367.8,370.1z M435.8,325.9c-17,0-23.8,5.7-23.8,18.5v8.7c0,11.1,6.8,17,22.2,17h44.8v-11.6h-40.6
	c-4,0-5.4-1.2-5.4-4.1v-1.8h32c11.1,0,17.3-3.5,17.3-11.7v-2c0-7.5-3.7-12.9-22.5-12.9H435.8z M487.9,325.9v44.2H509V338h17.3
	c5.9,0,8.8,1.8,8.8,7.5v24.7h21.1v-26.4c0-12.4-6.8-17.8-26.1-17.8H487.9z M432.9,344.5v-2.8c0-2.5,1.1-4.1,4.4-4.1h21
	c2.9,0,4.3,0.8,4.3,3.6c0,2.3-1.2,3.4-4.1,3.4H432.9z M340.5,354.4c0,2.4-1.1,4.1-4.3,4.1h-21c-2.7,0-4.2-0.8-4.2-3.3
	c0-2.5,1.1-3.7,4.2-3.7h25.3V354.4z"/>
<path class="st0" d="M607.2,281.7c-11.8,0-28.4,3.5-46.5,10.1c-16.1,5.9-31.5,13.5-46,22.7c9.4-3.8,28-8.2,43.3-8.2
	c20.7,0,35.4,7.9,13.7,35.7C635.8,300,634,281.7,607.2,281.7"/>
</svg>
